<svg xmlns="http://www.w3.org/2000/svg" xmlns:xlink="http://www.w3.org/1999/xlink" width="50" zoomAndPan="magnify" viewBox="0 0 37.5 37.499999" height="50" preserveAspectRatio="xMidYMid meet" version="1.0"><defs><clipPath id="b47455216b"><path d="M 18 4.335938 L 32.875 4.335938 L 32.875 19 L 18 19 Z M 18 4.335938 " clip-rule="nonzero"/></clipPath><clipPath id="40a0c67fe2"><path d="M 30 4.335938 L 32.875 4.335938 L 32.875 7 L 30 7 Z M 30 4.335938 " clip-rule="nonzero"/></clipPath><clipPath id="c1f056c240"><path d="M 4.011719 4.335938 L 7 4.335938 L 7 8 L 4.011719 8 Z M 4.011719 4.335938 " clip-rule="nonzero"/></clipPath><clipPath id="03897f0123"><path d="M 4.011719 7 L 9 7 L 9 14 L 4.011719 14 Z M 4.011719 7 " clip-rule="nonzero"/></clipPath><clipPath id="d15841dd09"><path d="M 29 29 L 32.875 29 L 32.875 32.460938 L 29 32.460938 Z M 29 29 " clip-rule="nonzero"/></clipPath></defs><path fill="#faa21b" d="M 24.15625 15.679688 L 24.15625 13.289062 L 15.589844 13.289062 L 15.589844 15.671875 C 15.589844 16.507812 17.507812 17.179688 19.875 17.179688 C 22.242188 17.1875 24.15625 16.515625 24.15625 15.679688 Z M 24.15625 15.679688 " fill-opacity="1" fill-rule="evenodd"/><path fill="#ffcd05" d="M 15.589844 18.070312 C 15.589844 18.898438 17.507812 19.578125 19.875 19.578125 C 22.242188 19.578125 24.15625 18.898438 24.15625 18.070312 L 24.15625 15.679688 C 24.15625 16.515625 22.242188 17.1875 19.875 17.1875 C 17.507812 17.1875 15.589844 16.507812 15.589844 15.679688 Z M 15.589844 18.070312 " fill-opacity="1" fill-rule="evenodd"/><path fill="#faa21b" d="M 24.15625 20.453125 C 24.15625 21.292969 22.242188 21.964844 19.875 21.964844 C 17.507812 21.964844 15.589844 21.285156 15.589844 20.453125 L 15.589844 18.070312 C 15.589844 18.898438 17.507812 19.578125 19.875 19.578125 C 22.242188 19.578125 24.15625 18.898438 24.15625 18.070312 Z M 24.15625 20.453125 " fill-opacity="1" fill-rule="evenodd"/><path fill="#ffcd05" d="M 19.875 11.785156 C 22.242188 11.785156 24.15625 12.464844 24.15625 13.292969 C 24.15625 14.125 22.242188 14.800781 19.875 14.800781 C 17.507812 14.800781 15.589844 14.125 15.589844 13.292969 C 15.589844 12.457031 17.507812 11.785156 19.875 11.785156 Z M 19.875 11.785156 " fill-opacity="1" fill-rule="evenodd"/><path fill="#feeb90" d="M 21.46875 12.726562 C 21.921875 12.726562 22.300781 12.898438 22.300781 13.109375 C 22.300781 13.320312 21.929688 13.492188 21.46875 13.492188 C 21.011719 13.492188 20.632812 13.320312 20.632812 13.109375 C 20.632812 12.898438 21.011719 12.726562 21.46875 12.726562 Z M 21.46875 12.726562 " fill-opacity="1" fill-rule="evenodd"/><path fill="#6d51a1" d="M 16.621094 8.542969 C 12.257812 9.519531 9 13.398438 9 18.035156 C 9 21.066406 10.390625 23.769531 12.5625 25.554688 L 10.363281 28.386719 C 7.34375 25.949219 5.40625 22.214844 5.40625 18.035156 C 5.40625 11.734375 9.808594 6.449219 15.710938 5.074219 Z M 16.621094 8.542969 " fill-opacity="1" fill-rule="evenodd"/><path fill="#1bbecb" d="M 24.710938 29.96875 C 22.921875 30.855469 20.90625 31.355469 18.765625 31.355469 C 16.628906 31.355469 14.605469 30.855469 12.816406 29.96875 L 14.296875 27.003906 L 14.414062 26.757812 C 15.722656 27.410156 17.203125 27.773438 18.765625 27.773438 C 20.324219 27.773438 21.804688 27.40625 23.113281 26.757812 C 25.652344 25.5 27.554688 23.183594 28.25 20.382812 L 31.777344 21.066406 C 30.867188 24.972656 28.230469 28.222656 24.710938 29.96875 Z M 24.710938 29.96875 " fill-opacity="1" fill-rule="evenodd"/><g clip-path="url(#b47455216b)"><path fill="#bfafd5" d="M 18.765625 4.730469 C 26.140625 4.730469 32.121094 10.691406 32.121094 18.042969 L 28.527344 18.042969 C 28.527344 12.667969 24.15625 8.3125 18.765625 8.3125 Z M 18.765625 4.730469 " fill-opacity="1" fill-rule="evenodd"/></g><g clip-path="url(#40a0c67fe2)"><path fill="#bfafd5" d="M 31.625 4.347656 C 32.3125 4.347656 32.875 4.902344 32.875 5.59375 C 32.875 6.285156 32.3125 6.839844 31.625 6.839844 C 30.9375 6.839844 30.378906 6.277344 30.378906 5.59375 C 30.378906 4.90625 30.9375 4.347656 31.625 4.347656 Z M 31.625 4.347656 " fill-opacity="1" fill-rule="evenodd"/></g><path fill="#6d51a1" d="M 30.378906 5.105469 C 30.648438 5.105469 30.871094 5.324219 30.871094 5.59375 C 30.871094 5.863281 30.65625 6.085938 30.378906 6.085938 L 28.210938 6.085938 L 25.617188 8.953125 C 25.441406 9.148438 25.128906 9.171875 24.925781 8.984375 C 24.726562 8.808594 24.707031 8.5 24.890625 8.292969 L 27.613281 5.289062 C 27.707031 5.179688 27.839844 5.105469 27.996094 5.105469 Z M 30.378906 5.105469 " fill-opacity="1" fill-rule="nonzero"/><g clip-path="url(#c1f056c240)"><path fill="#6d51a1" d="M 5.261719 4.863281 C 4.574219 4.863281 4.011719 5.421875 4.011719 6.105469 C 4.011719 6.792969 4.566406 7.351562 5.261719 7.351562 C 5.953125 7.351562 6.507812 6.796875 6.507812 6.105469 C 6.507812 5.421875 5.953125 4.863281 5.261719 4.863281 Z M 5.261719 4.863281 " fill-opacity="1" fill-rule="evenodd"/></g><g clip-path="url(#03897f0123)"><path fill="#bfafd5" d="M 4.769531 7.503906 C 4.769531 7.234375 4.988281 7.015625 5.261719 7.015625 C 5.53125 7.015625 5.75 7.234375 5.75 7.503906 L 5.75 10.414062 L 8.523438 12.910156 C 8.730469 13.089844 8.742188 13.398438 8.558594 13.601562 C 8.378906 13.800781 8.070312 13.820312 7.863281 13.636719 L 4.941406 11.015625 C 4.832031 10.921875 4.765625 10.785156 4.765625 10.632812 L 4.765625 7.503906 Z M 4.769531 7.503906 " fill-opacity="1" fill-rule="nonzero"/></g><g clip-path="url(#d15841dd09)"><path fill="#1bbecb" d="M 30.980469 32.449219 C 31.667969 32.449219 32.226562 31.898438 32.226562 31.207031 C 32.226562 30.519531 31.667969 29.960938 30.980469 29.960938 C 30.292969 29.960938 29.730469 30.519531 29.730469 31.207031 C 29.734375 31.890625 30.292969 32.449219 30.980469 32.449219 Z M 30.980469 32.449219 " fill-opacity="1" fill-rule="evenodd"/></g><path fill="#bfafd5" d="M 29.734375 30.71875 C 30.007812 30.71875 30.226562 30.933594 30.226562 31.207031 C 30.226562 31.476562 30.007812 31.691406 29.734375 31.691406 L 27.351562 31.691406 C 27.191406 31.691406 27.058594 31.621094 26.964844 31.515625 L 24.242188 28.503906 C 24.066406 28.300781 24.078125 27.996094 24.277344 27.8125 C 24.480469 27.636719 24.785156 27.648438 24.96875 27.847656 L 27.566406 30.71875 Z M 29.734375 30.71875 " fill-opacity="1" fill-rule="nonzero"/><path fill="#ffcd05" d="M 16.027344 15.777344 C 18.320312 15.777344 20.183594 17.628906 20.183594 19.921875 C 20.183594 22.207031 18.320312 24.066406 16.027344 24.066406 C 13.734375 24.066406 11.871094 22.207031 11.871094 19.921875 C 11.871094 17.628906 13.734375 15.777344 16.027344 15.777344 Z M 16.027344 15.777344 " fill-opacity="1" fill-rule="evenodd"/><path fill="#faa21b" d="M 16.027344 17.074219 C 17.605469 17.074219 18.882812 18.347656 18.882812 19.921875 C 18.882812 21.496094 17.605469 22.765625 16.027344 22.765625 C 14.449219 22.765625 13.171875 21.496094 13.171875 19.921875 C 13.171875 18.347656 14.449219 17.074219 16.027344 17.074219 Z M 16.027344 17.074219 " fill-opacity="1" fill-rule="evenodd"/><path fill="#fedc97" d="M 16.019531 17.382812 L 16.019531 17.925781 L 16.035156 17.382812 Z M 16.019531 21.917969 L 16.019531 22.449219 L 16.035156 21.917969 Z M 16.019531 21.917969 " fill-opacity="1" fill-rule="evenodd"/><path fill="#ffffff" d="M 16.511719 17.851562 L 16.511719 17.925781 C 16.511719 18.195312 16.292969 18.417969 16.019531 18.417969 C 15.75 18.417969 15.53125 18.203125 15.53125 17.925781 L 15.53125 17.382812 C 15.53125 17.113281 15.75 16.898438 16.019531 16.898438 L 16.046875 16.898438 C 16.316406 16.902344 16.53125 17.128906 16.53125 17.390625 Z M 16.511719 22.378906 L 16.511719 22.449219 C 16.511719 22.71875 16.292969 22.9375 16.019531 22.9375 C 15.75 22.9375 15.53125 22.71875 15.53125 22.449219 L 15.53125 21.917969 C 15.53125 21.648438 15.75 21.421875 16.019531 21.421875 L 16.046875 21.421875 C 16.316406 21.429688 16.53125 21.652344 16.53125 21.921875 Z M 16.511719 22.378906 " fill-opacity="1" fill-rule="nonzero"/><path fill="#ffffff" d="M 14.375 20.988281 C 14.347656 20.71875 14.546875 20.480469 14.816406 20.453125 C 15.089844 20.429688 15.328125 20.625 15.351562 20.894531 C 15.359375 20.996094 15.433594 21.09375 15.53125 21.171875 C 15.65625 21.265625 15.828125 21.324219 16.027344 21.324219 C 16.230469 21.324219 16.410156 21.257812 16.542969 21.160156 C 16.640625 21.082031 16.703125 20.976562 16.703125 20.863281 C 16.703125 20.539062 16.316406 20.46875 15.933594 20.394531 C 15.15625 20.242188 14.367188 20.09375 14.367188 18.964844 C 14.367188 18.550781 14.566406 18.183594 14.890625 17.917969 C 15.1875 17.675781 15.585938 17.53125 16.027344 17.53125 C 16.464844 17.53125 16.867188 17.679688 17.164062 17.917969 C 17.488281 18.183594 17.6875 18.550781 17.6875 18.964844 C 17.6875 19.234375 17.46875 19.460938 17.195312 19.460938 C 16.925781 19.460938 16.707031 19.242188 16.707031 18.964844 C 16.707031 18.859375 16.648438 18.753906 16.550781 18.675781 C 16.425781 18.570312 16.246094 18.503906 16.035156 18.503906 C 15.824219 18.503906 15.652344 18.570312 15.519531 18.675781 C 15.417969 18.753906 15.359375 18.859375 15.359375 18.964844 C 15.359375 19.289062 15.742188 19.359375 16.125 19.433594 C 16.90625 19.585938 17.691406 19.738281 17.691406 20.863281 C 17.691406 21.277344 17.496094 21.652344 17.171875 21.910156 C 16.875 22.152344 16.476562 22.300781 16.035156 22.300781 C 15.617188 22.300781 15.242188 22.167969 14.949219 21.941406 C 14.621094 21.71875 14.414062 21.375 14.375 20.988281 Z M 14.375 20.988281 " fill-opacity="1" fill-rule="nonzero"/><path fill="#feeb90" d="M 18.691406 18.65625 C 19.132812 18.65625 19.496094 19.019531 19.496094 19.460938 C 19.496094 19.902344 19.140625 20.261719 18.691406 20.261719 C 18.242188 20.261719 17.882812 19.902344 17.882812 19.460938 C 17.878906 19.019531 18.242188 18.65625 18.691406 18.65625 Z M 18.691406 18.65625 " fill-opacity="1" fill-rule="evenodd"/><path fill="#feeb90" d="M 22.820312 15.957031 C 22.003906 15.957031 21.71875 15.625 21.71875 14.105469 C 21.71875 15.507812 21.574219 15.957031 20.621094 15.957031 C 21.574219 15.957031 21.71875 16.441406 21.71875 17.503906 C 21.71875 16.554688 21.863281 15.957031 22.820312 15.957031 Z M 22.820312 15.957031 " fill-opacity="1" fill-rule="evenodd"/><path fill="#f6851f" d="M 14.929688 14.359375 C 14.109375 14.359375 13.828125 14.03125 13.828125 12.511719 C 13.828125 13.914062 13.679688 14.359375 12.730469 14.359375 C 13.679688 14.359375 13.828125 14.847656 13.828125 15.910156 C 13.828125 14.96875 13.972656 14.359375 14.929688 14.359375 Z M 14.929688 14.359375 " fill-opacity="1" fill-rule="evenodd"/></svg>