<svg xmlns="http://www.w3.org/2000/svg" xmlns:xlink="http://www.w3.org/1999/xlink" width="64" zoomAndPan="magnify" viewBox="0 0 48 36.750001" height="49" preserveAspectRatio="xMidYMid meet" version="1.0"><defs><clipPath id="857f04c73c"><path d="M 0.164062 0 L 47.835938 0 L 47.835938 36.5 L 0.164062 36.5 Z M 0.164062 0 " clip-rule="nonzero"/></clipPath></defs><g clip-path="url(#857f04c73c)"><path fill="#5741d9" d="M 23.996094 0 C 10.828125 0 0.164062 10.402344 0.164062 23.230469 L 0.164062 33.183594 C 0.164062 35.019531 1.6875 36.5 3.5625 36.5 C 5.441406 36.5 6.972656 35.019531 6.972656 33.183594 L 6.972656 23.230469 C 6.972656 21.394531 8.492188 19.910156 10.378906 19.910156 C 12.253906 19.910156 13.78125 21.394531 13.78125 23.230469 L 13.78125 33.183594 C 13.78125 35.019531 15.304688 36.5 17.183594 36.5 C 19.066406 36.5 20.59375 35.019531 20.59375 33.183594 L 20.59375 23.230469 C 20.59375 21.394531 22.117188 19.910156 23.996094 19.910156 C 25.882812 19.910156 27.40625 21.394531 27.40625 23.230469 L 27.40625 33.183594 C 27.40625 35.019531 28.933594 36.5 30.808594 36.5 C 32.6875 36.5 34.210938 35.019531 34.210938 33.183594 L 34.210938 23.230469 C 34.210938 21.394531 35.738281 19.910156 37.621094 19.910156 C 39.5 19.910156 41.027344 21.394531 41.027344 23.230469 L 41.027344 33.183594 C 41.027344 35.019531 42.550781 36.5 44.433594 36.5 C 46.3125 36.5 47.835938 35.019531 47.835938 33.183594 L 47.835938 23.230469 C 47.835938 10.402344 37.164062 0 23.996094 0 " fill-opacity="1" fill-rule="nonzero"/></g></svg>